<?xml version="1.0" encoding="UTF-8"?>
<svg width="36px" height="36px" viewBox="0 0 36 36" version="1.1" xmlns="http://www.w3.org/2000/svg" xmlns:xlink="http://www.w3.org/1999/xlink">
    <title>91D981A4-F654-4592-A13D-49050ECCDB4D</title>
    <g id="New-Market" stroke="none" stroke-width="1" fill="none" fill-rule="evenodd">
        <g id="Asset-TiendaCrypto" transform="translate(-161.000000, -190.000000)">
            <g id="dai-small" transform="translate(161.000000, 190.000000)">
                <circle id="Oval" fill="#F4B731" cx="18" cy="18" r="18"></circle>
                <path d="M17.829,10 C21.814,10 24.835,12.116 25.959,15.194 L28,15.194 L28,17.055 L26.389,17.055 C26.42,17.349 26.436,17.649 26.436,17.953 L26.436,17.999 C26.436,18.341 26.416,18.679 26.376,19.009 L28,19.009 L28,20.869 L25.92,20.869 C24.767,23.905 21.77,26 17.83,26 L11.277,26 L11.277,20.869 L9,20.869 L9,19.009 L11.277,19.009 L11.277,17.055 L9,17.055 L9,15.195 L11.277,15.195 L11.277,10 L17.829,10 Z M23.913,20.869 L13.108,20.869 L13.108,24.331 L17.828,24.331 C20.742,24.331 22.906,22.944 23.913,20.869 Z M24.478,17.055 L13.108,17.055 L13.108,19.009 L24.474,19.009 C24.518,18.694 24.541,18.373 24.541,18.044 L24.541,18.044 L24.541,17.999 C24.541,17.677 24.519,17.362 24.478,17.055 L24.478,17.055 Z M17.83,11.665 L17.828,11.666 L13.108,11.666 L13.108,15.193 L23.928,15.193 C22.927,13.089 20.756,11.665 17.83,11.665 L17.83,11.665 Z" id="Shape" fill="#252525" fill-rule="nonzero"></path>
            </g>
        </g>
    </g>
</svg>