<svg width="36" height="36" viewBox="0 0 36 36" fill="none" xmlns="http://www.w3.org/2000/svg">
<g clip-path="url(#clip0_840_11703)">
<path d="M34.2344 10.2332C31.0933 3.66538 24.3056 -0.363278 17.0364 0.025872C9.76721 0.415022 3.44823 5.14534 1.02614 12.011C-1.39594 18.8766 0.555872 26.5254 5.97141 31.3906C11.3869 36.2557 19.1997 37.3791 25.7663 34.2368C30.074 32.179 33.3869 28.4928 34.9752 23.9905C36.5636 19.4881 36.2971 14.5389 34.2344 10.2332Z" fill="#3F92FE"/>
<path d="M22 20.7095C22 18.5311 20.7463 17.7843 18.2388 17.4731C16.4477 17.2241 16.0895 16.7262 16.0895 15.8548C16.0895 14.9833 16.6866 14.4233 17.8806 14.4233C18.9552 14.4233 19.5523 14.7967 19.8507 15.7303C19.9105 15.9171 20.0896 16.0415 20.2687 16.0415H21.2238C21.4627 16.0415 21.6418 15.8548 21.6418 15.6059V15.5436C21.403 14.1742 20.3283 13.1163 18.9552 12.9918V11.498C18.9552 11.249 18.7761 11.0623 18.4777 11H17.5821C17.3433 11 17.1642 11.1868 17.1044 11.498V12.9295C15.3133 13.1785 14 14.4439 14 16C14 18.0539 15.3731 18.8423 17.8806 19.1536C19.5523 19.4648 20.0896 19.8382 20.0896 20.8341C20.0896 21.83 19.2537 22.5146 18.1194 22.5146C16.5671 22.5146 16.0297 21.8298 15.8507 20.8962C15.7911 20.6474 15.6119 20.5228 15.4328 20.5228H14.4178C14.1791 20.5228 14 20.7095 14 20.9585V21.0208C14.2387 22.5767 15.194 23.697 17.1642 24.0084V25.5021C17.1642 25.751 17.3433 25.9377 17.6417 26H18.5372C18.7761 26 18.9552 25.8133 19.0149 25.5021V24.0084C20.806 23.697 22 22.39 22 20.7095Z" fill="white"/>
<path d="M14.6092 27.711C9.42324 25.7689 6.76374 19.7342 8.69194 14.393C9.68923 11.4797 11.8833 9.26007 14.6092 8.21963C14.8752 8.08094 15.0081 7.87286 15.0081 7.52591V6.5549C15.0081 6.27738 14.8752 6.06926 14.6092 6C14.5427 6 14.4097 6 14.3432 6.06926C8.02702 8.15019 4.56972 15.1561 6.5643 21.7457C7.76103 25.63 10.62 28.6128 14.3432 29.8613C14.6092 30 14.8752 29.8613 14.9415 29.5838C15.0081 29.5146 15.0081 29.4451 15.0081 29.3065V28.3353C15.0081 28.1272 14.8087 27.8498 14.6092 27.711ZM21.6568 6.06926C21.3908 5.93061 21.1248 6.06926 21.0584 6.34677C20.9919 6.41621 20.9919 6.48546 20.9919 6.62429V7.59534C20.9919 7.87286 21.1913 8.15019 21.3908 8.28906C26.5767 10.2311 29.2362 16.2659 27.308 21.607C26.3107 24.5203 24.1167 26.74 21.3908 27.7804C21.1248 27.9191 20.9919 28.1272 20.9919 28.4741V29.4451C20.9919 29.7227 21.1248 29.9308 21.3908 30C21.4573 30 21.5902 30 21.6568 29.9308C27.9729 27.8498 31.4303 20.8439 29.4357 14.2544C28.2389 10.3006 25.3134 7.31783 21.6568 6.06926Z" fill="white"/>
</g>
<defs>
<clipPath id="clip0_840_11703">
<rect width="36" height="36" fill="white"/>
</clipPath>
</defs>
</svg>
