<?xml version="1.0" encoding="UTF-8"?>
<svg width="36px" height="36px" viewBox="0 0 36 36" version="1.1" xmlns="http://www.w3.org/2000/svg" xmlns:xlink="http://www.w3.org/1999/xlink">
    <title>75FD6D8A-14B3-455E-A377-DC42EC5278DC</title>
    <g id="New-Market" stroke="none" stroke-width="1" fill="none" fill-rule="evenodd">
        <g id="Asset-TiendaCrypto" transform="translate(-161.000000, -438.000000)">
            <g id="usdt-small" transform="translate(161.000000, 438.000000)">
                <circle id="Oval" fill="#50AF95" opacity="0.293742298" cx="18" cy="18" r="18"></circle>
                <g id="tether-usdt-logo" transform="translate(6.000000, 9.000000)">
                    <path d="M4.39418093,0.102541886 L0.0179977565,9.29471852 C-0.0161833154,9.36489652 -0.000707784075,9.44915219 0.056180644,9.50260313 L11.8751985,20.8280718 C11.9449533,20.8949668 12.0550467,20.8949668 12.1248015,20.8280718 L23.9438194,9.50331022 C24.0007078,9.44985928 24.0161833,9.36560361 23.9820022,9.29542561 L19.6058191,0.103248977 C19.5769762,0.0401985206 19.5139367,0 19.4446024,0 L4.55681174,0 C4.48713132,-0.000853135219 4.42344357,0.039297838 4.39418093,0.102541886 L4.39418093,0.102541886 Z" id="Path" fill="#50AF95"></path>
                    <path d="M13.5184769,10.2386844 L13.5184769,10.2386844 C13.433626,10.2450482 12.9952299,10.2712105 12.0173237,10.2712105 C11.2395242,10.2712105 10.6872865,10.2478765 10.4935437,10.2386844 L10.4935437,10.2386844 C7.48770191,10.1064584 5.24410372,9.58321145 5.24410372,8.95672926 C5.24410372,8.33024707 7.48770191,7.80770718 10.4935437,7.67335998 L10.4935437,9.71755865 C10.6901148,9.73170046 11.2529589,9.76493371 12.0307584,9.76493371 C12.9641179,9.76493371 13.4315047,9.72604373 13.5156485,9.71826574 L13.5156485,7.67477416 C16.5151265,7.80841427 18.753775,8.33166125 18.753775,8.95672926 C18.753775,9.58179727 16.5158335,10.1050442 13.5156485,10.2379773 L13.5156485,10.2379773 L13.5184769,10.2386844 Z M13.5184769,7.4633541 L13.5184769,5.63411095 L17.7044527,5.63411095 L17.7044527,2.84463889 L6.30756785,2.84463889 L6.30756785,5.63411095 L10.4928366,5.63411095 L10.4928366,7.46264701 C7.09102413,7.61891401 4.53277067,8.29277127 4.53277067,9.10026863 C4.53277067,9.90776599 7.09102413,10.5809162 10.4928366,10.7378903 L10.4928366,16.5996706 L13.5177698,16.5996706 L13.5177698,10.735769 C16.9118042,10.579502 19.4658152,9.90635181 19.4658152,9.09956154 C19.4658152,8.29277127 16.9139255,7.6196211 13.5177698,7.46264701 L13.5177698,7.46264701 L13.5184769,7.4633541 Z" id="Shape" fill="#252525"></path>
                </g>
            </g>
        </g>
    </g>
</svg>
